<svg width="78" height="88" fill="none" xmlns="http://www.w3.org/2000/svg"><path fill-rule="evenodd" clip-rule="evenodd" d="M0 .01V88h35.22a40.7 40.7 0 0030.5-12.63A43.12 43.12 0 0077.98 44a43.32 43.32 0 00-12.26-31.36A40.91 40.91 0 0035.22.01H0zM20 69V19h15.22c3.13-.13 6.25.77 9.16 1.92a22.5 22.5 0 017.76 5.16c2.2 2.4 3.92 5.23 5.03 8.3 1.11 3.08 1.99 6.34 1.83 9.61.16 3.27-.72 6.54-1.83 9.61a24.66 24.66 0 01-5.03 8.3c-2.2 2.25-4.84 4-7.75 5.16-2.92 1.16-6.04 2.07-9.17 1.94H20z" fill="#000"/></svg>